Rurouni Kenshin (2012) BRRip

Screens:
 
http://img846.imageshack.us/img846/2647/vlcsnap2013010316h53m48.png
 
http://img542.imageshack.us/img542/2158/vlcsnap2013010316h54m12.png
 
http://img689.imageshack.us/img689/4710/vlcsnap2013010316h54m47.png

[General]
Format: AVI
Format/Info: Audio Video Interleave
File size: 699 MiB
Duration: 2h 14mn
Overall bit rate: 727 Kbps

[Video]
Format: xvid
Codec ID: xvid
Duration: 2h 14mn
Bit rate: 586 Kbps
Width: 640 pixels
Height: 268 pixels
Display aspect ratio: 2.40:1
Frame rate: 24.000 fps
Bits/(Pixel*Frame): 0.142
Stream size: 564 MiB (81%)

[Audio]
Format: MPEG Audio
Format version: Version 1
Format profile: Layer 3
Mode: Joint stereo
Mode extension: MS Stereo
Codec ID: 55
Codec ID/Hint: MP3
Duration: 2h 14mn
Bit rate mode: Constant
Bit rate: 128 Kbps
Channel(s): 2 channels
Sampling rate: 48.0 KHz
Compression mode: Lossy
Stream size: 123 MiB (18%)
Alignment: Aligned on interleaves
Interleave, duration: 24 ms (0.58 video frame)